#N canvas 4 220 450 300 10;
#X msg 105 41 listen 3000;
#X msg 105 63 listen 0;
#X obj 105 198 print tcp;
#X obj 105 167 netreceive 3000;
#X floatatom 119 94 5 0 0 0 - - -, f 5;
#X msg 119 113 send foo \$1;
#X connect 0 0 3 0;
#X connect 1 0 3 0;
#X connect 3 0 2 0;
#X connect 4 0 5 0;
#X connect 5 0 3 0;
